<svg xmlns="http://www.w3.org/2000/svg" viewBox="0 0 88 88"><defs><style>.cls-1{fill:#fff;}</style></defs><title>apri2</title><g id="レイヤー_2" data-name="レイヤー 2"><g id="レイヤー_1-2" data-name="レイヤー 1"><rect width="88" height="88" rx="6"/><path class="cls-1" d="M14.32,17.76H25q8.68,0,12.51,1.6a12.76,12.76,0,0,1,6.06,5.19,16.07,16.07,0,0,1,2.21,8.59,14.44,14.44,0,0,1-2.9,9.22A15,15,0,0,1,35,47.47c-1.94.56-5.48.83-10.62.83V70.74H14.32ZM24.41,38.47h3.2a17.38,17.38,0,0,0,5.26-.54,4.63,4.63,0,0,0,2.32-1.79,5.21,5.21,0,0,0,.85-3,4.81,4.81,0,0,0-2.38-4.48q-1.72-1-6.41-1.05H24.41Z"/><path class="cls-1" d="M78.57,37l-6.08,6.09c-2.48-2.45-4.72-3.68-6.74-3.68a4.28,4.28,0,0,0-2.59.7,2.1,2.1,0,0,0-.94,1.75,2.13,2.13,0,0,0,.6,1.46,11.08,11.08,0,0,0,2.93,1.82l3.6,1.8q5.7,2.81,7.82,5.72a11.95,11.95,0,0,1-1.71,15.56q-3.84,3.5-10.28,3.5a16.36,16.36,0,0,1-13.69-6.7l6-6.59a14,14,0,0,0,4.05,3.26A9.09,9.09,0,0,0,65.72,63,4.88,4.88,0,0,0,68.85,62,2.71,2.71,0,0,0,70,59.86q0-2.27-4.29-4.43l-3.31-1.65q-9.51-4.8-9.51-12a10.45,10.45,0,0,1,3.58-7.94,13,13,0,0,1,9.17-3.29A15.84,15.84,0,0,1,78.57,37Z"/></g></g></svg>