<svg xmlns="http://www.w3.org/2000/svg" viewBox="0 0 88 88"><defs><style>.cls-1{fill:#fff;}</style></defs><title>apri1</title><g id="レイヤー_2" data-name="レイヤー 2"><g id="レイヤー_1-2" data-name="レイヤー 1"><rect width="88" height="88" rx="6"/><path class="cls-1" d="M30.52,17.76H40.75l20.37,53H50.64L46.5,59.83H24.88L20.57,70.74H10.09Zm5.18,14L28.59,50H42.76Z"/><path class="cls-1" d="M71.68,15.42a6,6,0,0,1,4.43,1.87A6.23,6.23,0,0,1,78,21.83a6.14,6.14,0,0,1-1.83,4.48,5.93,5.93,0,0,1-4.38,1.86,6,6,0,0,1-4.47-1.89,6.29,6.29,0,0,1-1.85-4.59,6.27,6.27,0,0,1,6.25-6.27ZM66.76,31.55h9.83V70.74H66.76Z"/></g></g></svg>