<svg xmlns="http://www.w3.org/2000/svg" viewBox="0 0 250.85 74.52"><defs><style>.cls-1{fill:#231815;}</style></defs><title>logo</title><g id="レイヤー_2" data-name="レイヤー 2"><g id="レイヤー_1-2" data-name="レイヤー 1"><path class="cls-1" d="M106.39,23.08a16.75,16.75,0,0,1-.68,4.14A13.91,13.91,0,0,1,103.19,32,13.46,13.46,0,0,1,99,35.43,17,17,0,0,1,93.4,37.2a17.68,17.68,0,0,1-7.2-.37,15.24,15.24,0,0,1-5.78-3,16.77,16.77,0,0,1-4.07-5.12A19.49,19.49,0,0,1,75,25.49a1.26,1.26,0,0,0-1.49-.88q-4.39,1-8.63,2.25a3,3,0,0,1-2.63-.47L36.91,7.49a1.23,1.23,0,0,0-1.25-.15,1.25,1.25,0,0,0-.76,1L31.22,39.83a.22.22,0,0,1,0,.08,3,3,0,0,1-1.36,2.22C16.22,50.91,8,61.26,5.93,72.07a3,3,0,0,1-4.11,2.21A3.06,3.06,0,0,1,.06,70.83c2.3-12.09,11-23.46,25.35-33L28.94,7.66a7.26,7.26,0,0,1,11.56-5l24.18,18c2.75-.77,5.55-1.47,8.39-2.13a1.27,1.27,0,0,0,1-1.17,20.7,20.7,0,0,1,.34-2.64A17.23,17.23,0,0,1,76.86,8.6a15.26,15.26,0,0,1,4.71-4.54A18.37,18.37,0,0,1,93.8,1.75a14.71,14.71,0,0,1,4.8,1.72,13,13,0,0,1,3.8,3.37,13.2,13.2,0,0,1,1.78,3.2,1.55,1.55,0,0,1-1.25,2.06l-4.2.59a1.57,1.57,0,0,1-1.61-.88,5.89,5.89,0,0,0-.78-1.18A7.67,7.67,0,0,0,94.41,9,8,8,0,0,0,92,8,7.88,7.88,0,0,0,89.28,8a8.77,8.77,0,0,0-4.14,1.57,8.16,8.16,0,0,0-2.49,3,11.53,11.53,0,0,0-1.06,4,18.5,18.5,0,0,0,.11,4.39A17,17,0,0,0,82.79,25a11.23,11.23,0,0,0,2.1,3.41,8.21,8.21,0,0,0,3.22,2.19,8.78,8.78,0,0,0,4.41.37,7,7,0,0,0,5.06-2.85,9.16,9.16,0,0,0,1.53-4.61,1.55,1.55,0,0,1,1.33-1.41l4.17-.59A1.56,1.56,0,0,1,106.39,23.08ZM129.65,1a1.56,1.56,0,0,0-1.46-1h-5.58a1.58,1.58,0,0,0-1.45,1l-11.7,31.2a1.55,1.55,0,0,0,1.45,2.1h4.25a1.58,1.58,0,0,0,1.46-1l1.94-5.57,3-8.73,3.71-10.51h.09L129,19l3.06,8.71L134,33.21a1.56,1.56,0,0,0,1.47,1h4.48a1.55,1.55,0,0,0,1.45-2.1Zm41.18,70.27a3,3,0,0,0,2.93-2.4,10.13,10.13,0,0,1,19.69,0,3,3,0,0,0,2.94,2.4h0a3,3,0,0,0,2.94-3.6,16.13,16.13,0,0,0-31.45,0,3,3,0,0,0,3,3.6Zm80-.49c-2.32-12.07-11.06-23.42-25.34-32.91L221.91,7.66a7.25,7.25,0,0,0-11.55-5l-24.19,18a203.92,203.92,0,0,0-23.17-5,1.28,1.28,0,0,1-1.06-1.41l.49-3.87a1.57,1.57,0,0,1,1.74-1.35l7.11.91A1.55,1.55,0,0,0,173,8.67l.4-3.21a1.55,1.55,0,0,0-1.34-1.74L147.3.57a1.55,1.55,0,0,0-1.73,1.35l-.41,3.21a1.54,1.54,0,0,0,1.34,1.73l7.12.9A1.55,1.55,0,0,1,155,9.5l-3.13,24.63a1.55,1.55,0,0,0,1.34,1.74l4.4.56a1.55,1.55,0,0,0,1.73-1.35l1.57-12.32a1.28,1.28,0,0,1,1.46-1.1A198.1,198.1,0,0,1,186,26.86a3,3,0,0,0,2.62-.47L214,7.49a1.23,1.23,0,0,1,1.25-.15,1.25,1.25,0,0,1,.76,1l3.68,31.45A3,3,0,0,0,221,42.13c13.64,8.78,21.91,19.13,23.93,29.94a3,3,0,0,0,2.94,2.45,3,3,0,0,0,2.68-1.7A3.32,3.32,0,0,0,250.79,70.78ZM125.42,22.86a3.83,3.83,0,1,0,3.83,3.83A3.82,3.82,0,0,0,125.42,22.86ZM54.47,71.27a3,3,0,0,0,2.94-2.4,10.13,10.13,0,0,1,19.68,0A3.06,3.06,0,0,0,80,71.27h0A3,3,0,0,0,83,67.67a16.13,16.13,0,0,0-31.44,0,3,3,0,0,0,2.94,3.6Z"/></g></g></svg>