<svg xmlns="http://www.w3.org/2000/svg" viewBox="0 0 88 88"><defs><style>.cls-1{fill:#fff;}</style></defs><title>apri3</title><g id="レイヤー_2" data-name="レイヤー 2"><g id="レイヤー_1-2" data-name="レイヤー 1"><rect width="88" height="88" rx="6"/><path class="cls-1" d="M8.73,17.76H20.67q11.55,0,17.17,2.86a22.4,22.4,0,0,1,9.24,9.31A30.09,30.09,0,0,1,50.72,45a30.38,30.38,0,0,1-2,11.25,23.43,23.43,0,0,1-5.62,8.52,19.69,19.69,0,0,1-7.75,4.68q-4.17,1.31-14.47,1.3H8.73Zm10,9.72V60.91h4.68q6.91,0,10-1.59A12,12,0,0,0,38.55,54a19.57,19.57,0,0,0,2-9.23q0-8.43-4.72-13.08-4.25-4.19-13.65-4.19Z"/><path class="cls-1" d="M53.14,49.65h5l4.1,11.6,4.41-11.6h3.06L74,61.11l4.1-11.46h5L75.74,70H72.5L68.16,58.42,63.68,70h-3.2Z"/></g></g></svg>